<?xml version="1.0" encoding="UTF-8"?>
<svg width="82px" height="82px" viewBox="0 0 82 82" version="1.1" xmlns="http://www.w3.org/2000/svg" xmlns:xlink="http://www.w3.org/1999/xlink">
    <!-- Generator: Sketch 52.5 (67469) - http://www.bohemiancoding.com/sketch -->
    <title>Group 2</title>
    <desc>Created with Sketch.</desc>
    <defs>
        <polygon id="path-1" points="0 0.223703704 64.4443704 0.223703704 64.4443704 59.2592593 0 59.2592593"></polygon>
    </defs>
    <g id="Page-2" stroke="none" stroke-width="1" fill="none" fill-rule="evenodd">
        <g id="01_dt_main" transform="translate(-40.000000, -15.000000)">
            <g id="header">
                <g id="Group-2" transform="translate(41.000000, 16.000000)">
                    <circle id="Oval" stroke="#537FF5" stroke-width="2" fill="#FFFFFF" cx="40" cy="40" r="40"></circle>
                    <g id="Group-18" transform="translate(8.000000, 9.000000)">
                        <g id="Group-3" transform="translate(0.000000, 0.146667)">
                            <mask id="mask-2" fill="white">
                                <use xlink:href="#path-1"></use>
                            </mask>
                            <g id="Clip-2"></g>
                            <path d="M32.271037,0.223703704 C23.981037,0.223703704 15.8714074,4.91407407 9.43585185,13.4307407 C3.5277037,21.2496296 -7.40740741e-05,31.0344444 -7.40740741e-05,39.6062963 L-7.40740741e-05,40.5811111 L11.7380741,40.5811111 C12.2484444,40.5811111 12.664,40.1659259 12.664,39.6551852 C12.664,39.1448148 12.2484444,38.7292593 11.7380741,38.7292593 L2.06066667,38.7292593 C2.30066667,30.7003704 5.62992593,21.7040741 11.0102963,14.5840741 C17.0936296,6.5337037 24.6854815,2.1 32.3862222,2.1 C39.954,2.1 47.4114074,6.29518519 53.3836296,13.9122222 C59.0017778,21.077037 62.4728889,30.3259259 62.7121481,38.7292593 L48.9547407,38.7292593 C48.9517778,35.6381481 48.3884444,32.6596296 47.2791852,29.8755556 C45.5417778,25.5122222 41.4002963,24.2014815 38.0658519,24.8414815 C34.7095556,25.4848148 31.3232593,28.2511111 31.3232593,32.9803704 L31.3232593,43.3362963 L35.6084444,43.2174074 C35.8558519,43.2103704 36.0854815,43.1077778 36.2554815,42.9277778 C36.4254815,42.7481481 36.5151111,42.512963 36.5080741,42.2659259 C36.4936296,41.7555556 36.0584444,41.347037 35.556963,41.3659259 L33.1751111,41.4322222 L33.1751111,32.9803704 C33.1751111,29.3085185 35.8065926,27.1603704 38.4147407,26.66 C40.8125185,26.2003704 44.1202963,26.9459259 45.5591852,30.5607407 C46.5836296,33.1333333 47.1028889,35.89 47.1028889,38.7537037 C47.1028889,49.0392593 40.4188148,57.4074074 32.2028889,57.4074074 C24.0084444,57.4074074 17.3417778,49.0551852 17.3417778,38.7885185 C17.3417778,38.2781481 16.9265926,37.8625926 16.4158519,37.8625926 C15.9051111,37.8625926 15.4899259,38.2781481 15.4899259,38.7885185 C15.4899259,50.0762963 22.9877037,59.2592593 32.2028889,59.2592593 C40.8495556,59.2592593 48.1217778,51.0833333 48.8836296,40.5811111 L64.4443704,40.5811111 L64.4443704,39.6062963 C64.4443704,21.7685185 50.0928889,0.223703704 32.271037,0.223703704" id="Fill-1" fill="#537FF5" mask="url(#mask-2)"></path>
                        </g>
                        <path d="M28.7811111,32.8763333 C28.5588889,32.7681852 28.307037,32.753 28.0733333,32.8341111 C27.8392593,32.9148519 27.6511111,33.0822593 27.5437037,33.3037407 C27.197037,34.0170741 26.4892593,34.460037 25.6966667,34.460037 C24.5648148,34.460037 23.6444444,33.5392963 23.6444444,32.4074444 C23.6444444,31.8967037 23.2292593,31.4815185 22.7185185,31.4815185 C22.2077778,31.4815185 21.7925926,31.8967037 21.7925926,32.4074444 C21.7925926,32.8011481 21.8514815,33.1889259 21.9685185,33.563 L21.3888889,33.8641111 C21.0266667,34.0522593 20.8855556,34.5004074 21.072963,34.863 C21.2551852,35.2141111 21.7203704,35.3615185 22.0718519,35.1792963 L22.67,34.8685556 C22.7181481,34.9270741 22.7685185,34.9844815 22.8203704,35.0411481 L22.3014815,35.8963333 C22.1988889,36.0652222 22.1681481,36.2644815 22.2148148,36.4567037 C22.2614815,36.6492963 22.3811111,36.8115185 22.5507407,36.9144815 C22.8874074,37.1185556 23.3651852,36.9996667 23.5674074,36.6652222 L24.0155556,35.9270741 C24.0718519,35.9544815 24.1288889,35.980037 24.1862963,36.0044815 L24.1322222,36.6774444 C24.1162963,36.8744815 24.1781481,37.0663333 24.3062963,37.2170741 C24.4348148,37.3678148 24.6140741,37.4596667 24.8114815,37.4752222 L24.8711111,37.4778148 C25.2540741,37.4778148 25.5781481,37.1785556 25.6096296,36.7963333 L25.6481481,36.3115185 C27.152963,36.3381852 28.5522222,35.4637407 29.2088889,34.1137407 C29.4318519,33.6544815 29.2396296,33.0992963 28.7811111,32.8763333" id="Fill-4" fill="#537FF5"></path>
                        <path d="M43.1293333,31.4814815 C42.6185926,31.4814815 42.2034074,31.897037 42.2034074,32.4074074 C42.2034074,33.5392593 41.283037,34.46 40.1511852,34.46 C39.3585926,34.46 38.6508148,34.017037 38.3041481,33.3037037 C38.0800741,32.8448148 37.5248889,32.6540741 37.0656296,32.8762963 C36.8434074,32.9848148 36.6767407,33.172963 36.596,33.4066667 C36.5156296,33.6407407 36.5308148,33.8918519 36.638963,34.1137037 C37.2945185,35.4633333 38.6915556,36.3359259 40.1993333,36.3114815 L40.2382222,36.7955556 C40.2682222,37.1781481 40.5922963,37.4777778 40.9767407,37.4777778 L41.0356296,37.4755556 C41.4422963,37.442963 41.7474815,37.0855556 41.7156296,36.6774074 L41.6611852,36.0044444 C41.7182222,35.98 41.7756296,35.9544444 41.8319259,35.927037 L42.2800741,36.6648148 C42.4826667,36.9996296 42.9593333,37.1188889 43.2974815,36.9140741 C43.4667407,36.8114815 43.586,36.6492593 43.633037,36.4566667 C43.6797037,36.2644444 43.648963,36.0651852 43.5463704,35.8962963 L43.0271111,35.0411111 C43.078963,34.9844444 43.1293333,34.927037 43.1774815,34.8688889 L43.7767407,35.18 C44.1315556,35.3625926 44.5893333,35.2162963 44.7745185,34.8625926 C44.9622963,34.5003704 44.8204444,34.0525926 44.4582222,33.8644444 L43.8785926,33.5633333 C43.996,33.1885185 44.0552593,32.8011111 44.0552593,32.4074074 C44.0552593,31.897037 43.6400741,31.4814815 43.1293333,31.4814815" id="Fill-6" fill="#537FF5"></path>
                        <path d="M18.3449259,30.7653333 C20.181963,21.944963 25.6393704,19.7894074 29.1512222,19.3471852 C28.581963,20.7834815 27.2156667,23.4816296 24.2775185,26.1538519 C21.4638148,28.7127407 19.5078889,30.0705185 18.3449259,30.7653333 M18.8286296,24.2531111 C17.9338148,25.784963 16.7586296,28.3808889 16.2404815,32.049037 L16.2271481,32.1582963 C16.1508519,32.4468148 16.2193704,32.7557037 16.409,32.984963 C16.5856667,33.1982963 16.8456667,33.3205185 17.1223333,33.3205185 C17.1997407,33.3205185 17.2771481,33.3108889 17.3530741,33.2912593 C17.6141852,33.2242222 20.0604815,32.492 25.5230741,27.5242222 C30.371963,23.1142222 31.3245556,18.6931111 31.3623333,18.5075556 C31.4201111,18.2286667 31.3478889,17.9434815 31.1645556,17.724963 C30.9801111,17.5053333 30.7256667,17.3905185 30.4275185,17.394963 C25.3697407,17.5479259 21.359,19.9197778 18.8286296,24.2531111" id="Fill-8" fill="#537FF5"></path>
                        <path d="M29.0888889,49.2464074 C29.0888889,50.676037 30.6674074,51.839 32.6074074,51.839 C34.5474074,51.839 36.1259259,50.676037 36.1259259,49.2464074 L36.1259259,48.876037 L29.0888889,48.876037 L29.0888889,49.2464074 Z" id="Fill-10" fill="#537FF5"></path>
                        <path d="M49.2758889,17.2887778 C49.4392222,17.5824815 49.7492222,17.7650741 50.0858889,17.7650741 C50.2425556,17.7650741 50.3981111,17.7247037 50.5347778,17.6484074 C50.7510741,17.528037 50.9077407,17.331 50.9758889,17.0932222 C51.0436667,16.8554444 51.0147778,16.6054444 50.8947778,16.3891481 C47.0603333,9.4872963 38.1625556,6.45655556 37.7862593,6.33137037 C37.5510741,6.25248148 37.299963,6.27025926 37.0784815,6.381 C36.8577407,6.49174074 36.6929259,6.68174074 36.614037,6.91655556 C36.4532963,7.40062963 36.7155185,7.92581481 37.1992222,8.08766667 C37.2847778,8.11618519 45.804037,11.0387778 49.2758889,17.2887778" id="Fill-12" fill="#537FF5"></path>
                        <path d="M26.675,8.08755556 C27.1590741,7.9257037 27.4212963,7.40051852 27.2601852,6.91644444 C27.1816667,6.68162963 27.0164815,6.49088889 26.7946296,6.38051852 C26.5738889,6.26977778 26.3224074,6.25274074 26.0887037,6.33088889 C25.7116667,6.45681481 16.8142593,9.48718519 12.9794444,16.3894074 C12.8594444,16.6057037 12.8305556,16.8553333 12.8987037,17.0931111 C12.9664815,17.3312593 13.1231481,17.5282963 13.3390741,17.6479259 C13.4761111,17.7245926 13.6316667,17.764963 13.7887037,17.764963 C14.1246296,17.764963 14.435,17.5827407 14.5987037,17.2886667 C18.0672222,11.044963 26.5731481,8.122 26.675,8.08755556" id="Fill-14" fill="#537FF5"></path>
                        <path d="M32.2222222,7.02418519 C32.1203704,7.02418519 32.037037,6.94122222 32.037037,6.839 C32.037037,6.73677778 32.1203704,6.65381481 32.2222222,6.65381481 C32.3240741,6.65381481 32.4074074,6.73677778 32.4074074,6.839 C32.4074074,6.94122222 32.3240741,7.02418519 32.2222222,7.02418519 M32.2222222,8.87603704 C33.3451852,8.87603704 34.2592593,7.96233333 34.2592593,6.839 C34.2592593,5.71566667 33.3451852,4.80196296 32.2222222,4.80196296 C31.0992593,4.80196296 30.1851852,5.71566667 30.1851852,6.839 C30.1851852,7.96233333 31.0992593,8.87603704 32.2222222,8.87603704" id="Fill-16" fill="#537FF5"></path>
                    </g>
                </g>
            </g>
        </g>
    </g>
</svg>